<svg width="31" height="30" viewBox="0 0 31 30" fill="none" xmlns="http://www.w3.org/2000/svg">
<path d="M12.3125 25.6009C13.5008 26.2663 14.6712 26.6006 15.7614 26.6006C16.6741 26.6003 17.5306 26.3659 18.2929 25.8953L21.1027 24.1621C21.1528 24.1311 21.1964 24.0906 21.2309 24.0429C21.2654 23.9951 21.2901 23.941 21.3037 23.8837C21.3173 23.8264 21.3194 23.7669 21.31 23.7088C21.3006 23.6506 21.2798 23.5949 21.2489 23.5447L18.8134 19.5975C18.7508 19.4964 18.6506 19.4242 18.5349 19.3969C18.4191 19.3695 18.2973 19.3892 18.196 19.4516L15.365 21.1989C14.9298 21.4674 14.3714 21.5532 13.8341 21.4351C13.2969 21.3167 12.8384 21.0052 12.5759 20.5795L8.72817 14.3438C8.17183 13.4422 8.45224 12.256 9.35326 11.6997L9.35356 11.6994L12.2919 9.88536C12.393 9.82286 12.4652 9.72276 12.4926 9.60705C12.5199 9.49134 12.5002 9.36951 12.4378 9.26833L10.002 5.32197C9.97111 5.2718 9.93065 5.22821 9.88292 5.1937C9.83518 5.15919 9.78111 5.13444 9.72379 5.12086C9.66648 5.10728 9.60704 5.10514 9.5489 5.11456C9.49076 5.12399 9.43504 5.14479 9.38495 5.17578L6.44902 6.98798C3.17677 9.00765 3.29156 14.3094 6.72883 19.8812C8.30457 22.436 10.2878 24.4673 12.3125 25.6009ZM6.92045 7.75089L9.47464 6.17456L11.4396 9.35772L8.88273 10.9361L8.88153 10.937C7.56079 11.7535 7.14944 13.4924 7.96526 14.8144L11.813 21.0497C12.2019 21.6808 12.8686 22.1403 13.6416 22.3107C14.4042 22.4778 15.2045 22.3514 15.8362 21.9615L18.2854 20.4498L20.2501 23.6335L17.8218 25.1315C16.0484 26.2257 14.0853 25.565 12.7508 24.8179C10.857 23.7573 8.98915 21.8369 7.49203 19.41C4.33219 14.2879 4.09722 9.49344 6.92045 7.75089ZM15.3217 10.0303C16.7728 10.1161 18.057 10.8617 18.8457 12.0763C19.5996 13.2338 19.7811 14.6523 19.3431 15.9683C19.3206 16.0357 19.3144 16.1074 19.3251 16.1777C19.3358 16.2479 19.363 16.3146 19.4046 16.3722C19.4462 16.4299 19.5008 16.4768 19.5641 16.5091C19.6274 16.5414 19.6974 16.5582 19.7685 16.5581C19.9565 16.5581 20.1314 16.4394 20.1939 16.2514C20.7188 14.6747 20.5012 12.9744 19.5975 11.5872C18.6666 10.1529 17.0876 9.23605 15.3746 9.13471C15.125 9.12424 14.9151 9.30869 14.9005 9.55592C14.897 9.61473 14.9051 9.67366 14.9243 9.72934C14.9436 9.78502 14.9737 9.83636 15.0128 9.88042C15.0519 9.92448 15.0993 9.9604 15.1523 9.98612C15.2053 10.0118 15.2629 10.0269 15.3217 10.0303Z" fill="#602088"/>
<path d="M15.9494 6.70189C18.2991 6.97184 20.3849 8.26119 21.6718 10.2387C22.288 11.1857 22.6935 12.2541 22.8607 13.3715C23.0279 14.4889 22.953 15.6291 22.641 16.715C22.6217 16.7818 22.6182 16.8522 22.6308 16.9205C22.6434 16.9889 22.6717 17.0534 22.7135 17.1089C22.7554 17.1644 22.8095 17.2094 22.8718 17.2404C22.934 17.2713 23.0026 17.2874 23.0721 17.2872C23.1693 17.2871 23.2639 17.2554 23.3416 17.1968C23.4192 17.1383 23.4757 17.056 23.5026 16.9626C23.85 15.7532 23.9335 14.4832 23.7473 13.2388C23.5611 11.9943 23.1096 10.8044 22.4234 9.74963C20.9902 7.54731 18.668 6.11178 16.0517 5.81104C15.8104 5.78264 15.5835 5.95931 15.5551 6.20535C15.5267 6.45138 15.7031 6.67349 15.9494 6.70189Z" fill="#602088"/>
<path d="M16.5626 3.77044C18.1043 3.98441 19.5819 4.52725 20.8955 5.3622C22.209 6.19714 23.3277 7.30468 24.1758 8.60976C25.0083 9.89092 25.5619 11.3329 25.8005 12.8421C26.0391 14.3512 25.9575 15.8936 25.5609 17.3691C25.5429 17.4356 25.5406 17.5054 25.554 17.5729C25.5674 17.6405 25.5962 17.704 25.6381 17.7587C25.68 17.8133 25.7339 17.8576 25.7957 17.888C25.8575 17.9184 25.9255 17.9342 25.9943 17.9341C26.1919 17.9341 26.3734 17.8026 26.4269 17.6023C26.8562 16.0052 26.9446 14.3355 26.6864 12.7019C26.4281 11.0684 25.8288 9.50746 24.9277 8.12068C24.0096 6.70805 22.7986 5.50924 21.3767 4.60544C19.9549 3.70165 18.3554 3.11399 16.6867 2.88227C16.569 2.86625 16.4497 2.89746 16.3549 2.96911C16.2601 3.04075 16.1976 3.14699 16.1809 3.26463C16.1727 3.32291 16.1761 3.38223 16.1908 3.43921C16.2056 3.49618 16.2314 3.54969 16.2669 3.59667C16.3023 3.64364 16.3467 3.68317 16.3975 3.71299C16.4482 3.74281 16.5043 3.76233 16.5626 3.77044Z" fill="#602088"/>
</svg>
