<svg width="31" height="30" viewBox="0 0 31 30" fill="none" xmlns="http://www.w3.org/2000/svg">
<path d="M17.9075 20.9239L22.3896 13.7169C22.4043 13.6936 22.4165 13.6691 22.4261 13.6437C23.1985 12.3877 23.6078 10.9422 23.6087 9.46773C23.6087 5.05172 20.016 1.459 15.6 1.459C11.184 1.459 7.59094 5.05172 7.59094 9.46773C7.59094 10.94 8.0002 12.3824 8.77477 13.6455C8.78373 13.6676 8.7942 13.6891 8.80675 13.7101L13.128 20.9418C9.77354 21.416 7.56763 22.7953 7.56763 24.4685C7.56763 26.5417 11.0907 28.1652 15.588 28.1652C20.0853 28.1652 23.6084 26.5414 23.6084 24.4685C23.6087 22.7875 21.3 21.3774 17.9075 20.9239ZM9.57982 13.2416C8.86746 12.1117 8.4889 10.8035 8.48778 9.46773C8.48778 5.54617 11.6781 2.35583 15.6 2.35583C19.5215 2.35583 22.7119 5.54617 22.7119 9.46773C22.7119 10.8001 22.3343 12.105 21.6201 13.2416C21.6052 13.2655 21.5929 13.2903 21.5831 13.316L16.8478 20.9293C16.7766 21.0384 16.7626 21.0632 16.6756 21.2061L15.4798 23.1289L9.61988 13.3223C9.60926 13.2941 9.59584 13.2671 9.57982 13.2416ZM15.5883 27.2684C11.3902 27.2684 8.46476 25.7925 8.46476 24.4685C8.46476 23.2667 10.668 22.1343 13.6314 21.7837L15.0873 24.2204C15.1677 24.3546 15.3118 24.4374 15.4681 24.4386H15.472C15.6269 24.4386 15.771 24.3585 15.8529 24.2269L17.3835 21.766C20.3941 22.0922 22.7116 23.2533 22.7116 24.4685C22.7119 25.7928 19.7864 27.2684 15.5883 27.2684Z" fill="#602088"/>
<path d="M18.5003 9.46773C18.5003 7.8621 17.1939 6.55571 15.5883 6.55571C13.9827 6.55571 12.6763 7.8621 12.6763 9.46773C12.6763 11.0734 13.9827 12.3798 15.5883 12.3798C17.1939 12.3798 18.5003 11.0734 18.5003 9.46773ZM13.5731 9.46773C13.5731 8.35655 14.4771 7.45254 15.5883 7.45254C16.6995 7.45254 17.6035 8.35655 17.6035 9.46773C17.6035 10.5789 16.6998 11.4829 15.5883 11.4829C14.4768 11.4829 13.5731 10.5789 13.5731 9.46773Z" fill="#602088"/>
</svg>
