<svg width="100" height="100" viewBox="0 0 100 100" fill="none" xmlns="http://www.w3.org/2000/svg">
<path fill-rule="evenodd" clip-rule="evenodd" d="M20.648 20.732L31.762 25.672C29.5849 28.9185 28.4201 32.738 28.415 36.647C28.415 47.515 37.257 56.358 48.125 56.358C58.994 56.358 67.836 47.515 67.836 36.647C67.8301 32.7781 66.6886 28.9961 64.553 25.77L74.999 21.128V39.83L72.196 46.14C72.0938 46.3684 72.0504 46.6187 72.0698 46.8682C72.0892 47.1177 72.1708 47.3583 72.3072 47.5682C72.4435 47.778 72.6302 47.9503 72.8503 48.0694C73.0704 48.1885 73.3168 48.2506 73.567 48.25H79.241C79.4878 48.2501 79.7308 48.1893 79.9485 48.0729C80.1662 47.9566 80.3518 47.7884 80.4889 47.5831C80.626 47.3779 80.7103 47.142 80.7344 46.8964C80.7585 46.6507 80.7216 46.4029 80.627 46.175L78 39.851V19.75C78 19.3521 77.842 18.9706 77.5607 18.6893C77.2794 18.408 76.8978 18.25 76.5 18.25C76.431 18.25 76.366 18.261 76.299 18.27C76.1796 18.1548 76.0416 18.0605 75.891 17.991L48.877 5.98597C48.6851 5.90089 48.4774 5.85693 48.2675 5.85693C48.0576 5.85693 47.8499 5.90089 47.658 5.98597L20.648 17.991C20.383 18.1089 20.1578 18.3011 19.9998 18.5443C19.8418 18.7876 19.7577 19.0714 19.7577 19.3615C19.7577 19.6515 19.8418 19.9354 19.9998 20.1786C20.1578 20.4219 20.383 20.6141 20.648 20.732ZM64.837 36.291C64.837 45.506 57.34 53.002 48.126 53.002C38.912 53.002 31.416 45.506 31.416 36.291C31.422 32.7984 32.5203 29.3952 34.557 26.558L47.659 32.381C47.8508 32.4659 48.0582 32.5098 48.268 32.5098C48.4778 32.5098 48.6852 32.4659 48.877 32.381L61.765 26.654C63.7582 29.4727 64.8311 32.8387 64.837 36.291ZM75.875 45.25L76.454 43.948L76.995 45.25H75.875ZM48.268 8.64197L71.588 19.005L48.268 29.368L24.952 19.005L48.268 8.64197ZM48.698 59.552C29.851 59.552 14.516 74.877 14.5 93.721C14.499 94.56 15.161 95.25 16 95.25H81.394C82.233 95.25 82.895 94.561 82.894 93.721C82.878 74.877 67.543 59.552 48.698 59.552ZM17.536 92.25C18.322 75.741 31.998 62.552 48.698 62.552C65.397 62.552 79.073 75.741 79.859 92.25H17.536Z" fill="black"/>
</svg>
